<svg width="868" height="846" viewBox="0 0 868 846" fill="none" xmlns="http://www.w3.org/2000/svg">
<path d="M722 842C833.6 738.8 862.833 711.667 863.5 711M601.5 842C809.5 647.2 861.833 596.167 862 595M862 479.5C557.6 769.5 476.833 842 474.5 842M658 556C821.6 397.6 865.333 354.833 867 353.5M574 635C402 802.6 359.667 844.333 358.5 845.5" stroke="#948E8E" stroke-opacity="0.32"/>
<path d="M555 332C566.6 335.6 583.5 342.833 590.5 346L609.5 359L631.5 377.5L645 395.5L655.5 413.5L664.5 436L670.5 455.5L674 490.5L669 524L657 558L637.5 586.5L618.5 606.5L592.5 625.5L563 638L533.5 644.5L507 646L479 642L450 633L432 623.5L408.5 606.5L407.5 605.5L411.5 601L413.5 597V588.5L411.5 582.5L407.5 578L402 574.5L398 573.5H389.5L385 575.5L381 578L377.5 581.5L375 587L374 594L376.5 602.5L381 607.5L387 611L395.5 612L402 610L407.5 606.5" stroke="#948E8E" stroke-opacity="0.32"/>
<path d="M381.5 575.5L366 548L359 526.5L354.5 501V476.5L356 462L358 448L367 422L380.5 398L395 379L420.5 356.5L442.5 343L453.5 338L465 333.5L474.5 331.5M474.5 331.5L476 327.5L478 319L483.5 310L492.5 301.5M474.5 331.5L476 341L478 350.5L483.5 359L492.5 367L506.5 373.5L525 372.5L540 365.5L549.5 353.5L553 342.5L554 332.5L552.5 322.5L548 313M515.5 295L527 296.5L529.5 297.5M538 301.5L542.5 306" stroke="#948E8E" stroke-opacity="0.32"/>
<path d="M663 428.5L861 233.5L862.5 232M663 300.5C619.4 344.9 607.833 356.667 607.5 357M666.5 297.5C823.3 141.9 863.167 101.333 863.5 100.5M540.5 294.5C545.3 289.7 547.167 288.167 547.5 288M555 280C774.2 57.2 829.667 0.833333 830 0.5" stroke="#948E8E" stroke-opacity="0.32"/>
<path d="M452.5 635C284.5 799.8 241.5 842 241 842.5" stroke="#948E8E" stroke-opacity="0.32"/>
<path d="M374 590C173.6 790 122.167 841.333 121.5 842" stroke="#948E8E" stroke-opacity="0.32"/>
<path d="M353.5 485C73.9 768.6 2 841.5 1 842.5" stroke="#948E8E" stroke-opacity="0.32"/>
</svg>
