<svg width="19" height="18" viewBox="0 0 19 18" fill="none" xmlns="http://www.w3.org/2000/svg">
<path d="M1.9 18C1.3775 18 0.930208 17.7797 0.558125 17.3391C0.186042 16.8984 0 16.3687 0 15.75V2.25C0 1.63125 0.186042 1.10156 0.558125 0.660937C0.930208 0.220312 1.3775 0 1.9 0H17.1C17.6225 0 18.0698 0.220312 18.4419 0.660937C18.814 1.10156 19 1.63125 19 2.25V15.75C19 16.3687 18.814 16.8984 18.4419 17.3391C18.0698 17.7797 17.6225 18 17.1 18H1.9ZM9.5 10.125L1.9 4.5V15.75H17.1V4.5L9.5 10.125ZM9.5 7.875L17.1 2.25H1.9L9.5 7.875ZM1.9 4.5V2.25V15.75V4.5Z" fill="white"/>
</svg>
