<svg width="36" height="47" viewBox="0 0 36 47" fill="none" xmlns="http://www.w3.org/2000/svg">
<path d="M10.536 46.76C9.384 46.76 8.456 46.44 7.752 45.8C7.08 45.16 6.744 44.296 6.744 43.208C6.744 42.344 6.984 41.368 7.464 40.28C7.944 39.224 8.712 38.104 9.768 36.92C11.944 34.424 14.36 32.376 17.016 30.776C19.704 29.176 22.584 27.88 25.656 26.888C26.104 25.672 26.52 24.44 26.904 23.192C27.288 21.912 27.672 20.632 28.056 19.352C26.488 20.824 24.76 22.296 22.872 23.768C20.984 25.208 18.984 26.424 16.872 27.416C14.76 28.376 12.568 28.856 10.296 28.856C8.632 28.856 7.048 28.552 5.544 27.944C4.072 27.304 2.872 26.344 1.944 25.064C1.016 23.784 0.552 22.136 0.552 20.12C0.552 15.16 2.76 10.696 7.176 6.728C9.736 4.392 12.52 2.712 15.528 1.688C18.568 0.631998 21.768 0.103997 25.128 0.103997C25.512 0.103997 26.056 0.151998 26.76 0.247998C27.496 0.311999 28.248 0.471999 29.016 0.727998C29.784 0.951999 30.456 1.288 31.032 1.736C31.608 2.152 31.944 2.696 32.04 3.368C32.072 3.496 32.088 3.608 32.088 3.704C32.088 3.8 32.088 3.896 32.088 3.992C32.088 4.376 32.024 4.664 31.896 4.856C31.768 5.048 31.624 5.144 31.464 5.144C31.144 5.144 30.984 4.888 30.984 4.376C30.92 3.512 30.632 2.856 30.12 2.408C29.64 1.928 29.032 1.608 28.296 1.448C27.592 1.288 26.872 1.208 26.136 1.208C24.952 1.208 23.528 1.464 21.864 1.976C20.232 2.456 18.504 3.144 16.68 4.04C14.856 4.904 13.048 5.944 11.256 7.16C9.496 8.344 7.896 9.656 6.456 11.096C5.016 12.504 3.864 13.992 3 15.56C2.136 17.128 1.704 18.712 1.704 20.312C1.704 22.52 2.424 24.12 3.864 25.112C5.336 26.072 7.192 26.552 9.432 26.552C11.608 26.552 13.912 26.168 16.344 25.4C18.168 24.856 19.736 24.184 21.048 23.384C22.36 22.552 23.608 21.608 24.792 20.552C25.976 19.464 27.24 18.28 28.584 17C29.16 15.528 29.912 14.584 30.84 14.168C31.768 13.752 32.632 13.544 33.432 13.544C33.88 13.544 34.28 13.576 34.632 13.64C34.984 13.704 35.224 13.736 35.352 13.736C35.608 13.768 35.736 13.864 35.736 14.024C35.736 14.312 35.544 14.424 35.16 14.36C34.168 14.296 33.304 14.76 32.568 15.752C31.832 16.712 31.24 17.864 30.792 19.208C30.376 20.328 29.976 21.48 29.592 22.664C29.208 23.848 28.792 25.032 28.344 26.216C29.976 25.768 31.192 25.544 31.992 25.544C32.376 25.544 32.632 25.592 32.76 25.688C32.888 25.784 32.952 25.912 32.952 26.072C32.952 26.36 32.84 26.456 32.616 26.36C32.424 26.296 32.216 26.264 31.992 26.264C31.576 26.264 31.048 26.344 30.408 26.504C29.768 26.632 29.192 26.808 28.68 27.032C28.168 27.256 27.848 27.528 27.72 27.848C26.344 31.336 24.888 34.28 23.352 36.68C21.816 39.08 20.264 41.016 18.696 42.488C17.16 43.992 15.688 45.08 14.28 45.752C12.872 46.424 11.624 46.76 10.536 46.76ZM11.88 45.512C13.064 45.512 14.232 45.048 15.384 44.12C16.536 43.224 17.64 42.056 18.696 40.616C19.784 39.176 20.76 37.64 21.624 36.008C22.52 34.376 23.288 32.824 23.928 31.352C24.568 29.88 25.048 28.696 25.368 27.8C22.744 28.664 20.312 29.816 18.072 31.256C15.832 32.696 13.832 34.504 12.072 36.68C11.112 37.864 10.408 38.968 9.96 39.992C9.544 41.016 9.336 41.928 9.336 42.728C9.336 43.592 9.56 44.264 10.008 44.744C10.488 45.256 11.112 45.512 11.88 45.512Z" fill="white"/>
</svg>
