<svg width="47" height="63" viewBox="0 0 47 63" fill="none" xmlns="http://www.w3.org/2000/svg">
<path d="M13.312 62.208C11.776 62.208 10.5387 61.7813 9.6 60.928C8.704 60.0747 8.256 58.9227 8.256 57.472C8.256 56.32 8.576 55.0187 9.216 53.568C9.856 52.16 10.88 50.6667 12.288 49.088C15.1893 45.76 18.4107 43.0293 21.952 40.896C25.536 38.7627 29.376 37.0347 33.472 35.712C34.0693 34.0907 34.624 32.448 35.136 30.784C35.648 29.0773 36.16 27.3707 36.672 25.664C34.5813 27.6267 32.2773 29.5893 29.76 31.552C27.2427 33.472 24.576 35.0933 21.76 36.416C18.944 37.696 16.0213 38.336 12.992 38.336C10.7733 38.336 8.66133 37.9307 6.656 37.12C4.69333 36.2667 3.09333 34.9867 1.856 33.28C0.618667 31.5733 0 29.376 0 26.688C0 20.0747 2.944 14.1227 8.832 8.832C12.2453 5.71734 15.9573 3.47734 19.968 2.112C24.0213 0.704001 28.288 0 32.768 0C33.28 0 34.0053 0.0640004 34.944 0.192001C35.9253 0.277336 36.928 0.490669 37.952 0.832001C38.976 1.13067 39.872 1.57867 40.64 2.176C41.408 2.73067 41.856 3.456 41.984 4.352C42.0267 4.52267 42.048 4.672 42.048 4.8C42.048 4.928 42.048 5.056 42.048 5.184C42.048 5.696 41.9627 6.08 41.792 6.336C41.6213 6.592 41.4293 6.72 41.216 6.72C40.7893 6.72 40.576 6.37867 40.576 5.696C40.4907 4.544 40.1067 3.66934 39.424 3.072C38.784 2.432 37.9733 2.00534 36.992 1.792C36.0533 1.57867 35.0933 1.472 34.112 1.472C32.5333 1.472 30.6347 1.81333 28.416 2.496C26.24 3.136 23.936 4.05333 21.504 5.248C19.072 6.4 16.6613 7.78667 14.272 9.408C11.9253 10.9867 9.792 12.736 7.872 14.656C5.952 16.5333 4.416 18.5173 3.264 20.608C2.112 22.6987 1.536 24.8107 1.536 26.944C1.536 29.888 2.496 32.0213 4.416 33.344C6.37867 34.624 8.85333 35.264 11.84 35.264C14.7413 35.264 17.8133 34.752 21.056 33.728C23.488 33.0027 25.5787 32.1067 27.328 31.04C29.0773 29.9307 30.7413 28.672 32.32 27.264C33.8987 25.8133 35.584 24.2347 37.376 22.528C38.144 20.5653 39.1467 19.3067 40.384 18.752C41.6213 18.1973 42.7733 17.92 43.84 17.92C44.4373 17.92 44.9707 17.9627 45.44 18.048C45.9093 18.1333 46.2293 18.176 46.4 18.176C46.7413 18.2187 46.912 18.3467 46.912 18.56C46.912 18.944 46.656 19.0933 46.144 19.008C44.8213 18.9227 43.6693 19.5413 42.688 20.864C41.7067 22.144 40.9173 23.68 40.32 25.472C39.7653 26.9653 39.232 28.5013 38.72 30.08C38.208 31.6587 37.6533 33.2373 37.056 34.816C39.232 34.2187 40.8533 33.92 41.92 33.92C42.432 33.92 42.7733 33.984 42.944 34.112C43.1147 34.24 43.2 34.4107 43.2 34.624C43.2 35.008 43.0507 35.136 42.752 35.008C42.496 34.9227 42.2187 34.88 41.92 34.88C41.3653 34.88 40.6613 34.9867 39.808 35.2C38.9547 35.3707 38.1867 35.6053 37.504 35.904C36.8213 36.2027 36.3947 36.5653 36.224 36.992C34.3893 41.6427 32.448 45.568 30.4 48.768C28.352 51.968 26.2827 54.5493 24.192 56.512C22.144 58.5173 20.1813 59.968 18.304 60.864C16.4267 61.76 14.7627 62.208 13.312 62.208ZM15.104 60.544C16.6827 60.544 18.24 59.9253 19.776 58.688C21.312 57.4933 22.784 55.936 24.192 54.016C25.6427 52.096 26.944 50.048 28.096 47.872C29.2907 45.696 30.3147 43.6267 31.168 41.664C32.0213 39.7013 32.6613 38.1227 33.088 36.928C29.5893 38.08 26.3467 39.616 23.36 41.536C20.3733 43.456 17.7067 45.8667 15.36 48.768C14.08 50.3467 13.1413 51.8187 12.544 53.184C11.9893 54.5493 11.712 55.7653 11.712 56.832C11.712 57.984 12.0107 58.88 12.608 59.52C13.248 60.2027 14.08 60.544 15.104 60.544Z" fill="white"/>
</svg>
