<svg width="20" height="20" viewBox="0 0 20 20" fill="none" xmlns="http://www.w3.org/2000/svg">
<path d="M9.51993 0.105225C0.788959 0.105225 0.105286 0.788898 0.105286 9.51987V9.69058C0.105286 18.4216 0.788959 19.1052 9.51993 19.1052H9.69064C18.4216 19.1052 19.1053 18.4216 19.1053 9.69058V9.60522C19.1053 0.794924 18.4156 0.105225 9.60529 0.105225H9.51993ZM7.70529 2.00522H11.5053C16.7916 2.00522 17.2053 2.41895 17.2053 7.70522V11.5052C17.2053 16.7915 16.7916 17.2052 11.5053 17.2052H7.70529C2.41901 17.2052 2.00529 16.7915 2.00529 11.5052V7.70522C2.00529 2.41895 2.41901 2.00522 7.70529 2.00522ZM14.3525 3.90522C13.8276 3.90665 13.4039 4.33313 13.4053 4.85801C13.4067 5.38288 13.8332 5.80665 14.3581 5.80522C14.8829 5.8038 15.3067 5.37732 15.3053 4.85244C15.3039 4.32757 14.8774 3.9038 14.3525 3.90522ZM9.59415 4.85522C6.9712 4.8614 4.84911 6.99341 4.85529 9.61636C4.86146 12.2393 6.99347 14.3614 9.61642 14.3552C12.2394 14.349 14.3615 12.217 14.3553 9.59409C14.3491 6.97114 12.2171 4.84905 9.59415 4.85522ZM9.59879 6.75522C11.1725 6.75142 12.4515 8.02506 12.4553 9.59873C12.4586 11.1724 11.1855 12.4514 9.61178 12.4552C8.0381 12.459 6.75909 11.1859 6.75529 9.61172C6.75149 8.03804 8.02512 6.75902 9.59879 6.75522Z" fill="white"/>
</svg>
